<?xml version="1.0" encoding="iso-8859-1"?>
<!-- Generator: Adobe Illustrator 15.0.0, SVG Export Plug-In . SVG Version: 6.00 Build 0)  -->
<!DOCTYPE svg PUBLIC "-//W3C//DTD SVG 1.0//EN" "http://www.w3.org/TR/2001/REC-SVG-20010904/DTD/svg10.dtd">
<svg version="1.0" id="Camada_1" xmlns="http://www.w3.org/2000/svg" xmlns:xlink="http://www.w3.org/1999/xlink" x="0px" y="0px"
	 width="29.04px" height="8.16px" viewBox="0 0 29.04 8.16" style="enable-background:new 0 0 29.04 8.16;" xml:space="preserve">
<path style="fill-rule:evenodd;clip-rule:evenodd;fill:#FFFFFF;" d="M23.247,3.242c0-0.138-0.032-0.253-0.097-0.347
	c-0.063-0.092-0.146-0.139-0.248-0.14V2.492l0.027,0c0.188,0,0.352,0.062,0.486,0.186c0.136,0.125,0.203,0.298,0.203,0.523
	c0,0.239-0.074,0.426-0.221,0.561c-0.142,0.13-0.307,0.197-0.496,0.202V3.701h0.005c0.101,0,0.182-0.043,0.245-0.131
	S23.247,3.373,23.247,3.242z M22.902,2.755h-0.004c-0.101,0-0.183,0.044-0.246,0.131c-0.063,0.087-0.095,0.197-0.095,0.328
	c0,0.138,0.032,0.253,0.097,0.347c0.064,0.092,0.146,0.139,0.248,0.14v0.262l-0.024,0c-0.19,0-0.353-0.062-0.488-0.184
	c-0.136-0.124-0.204-0.296-0.204-0.52c0-0.24,0.074-0.428,0.223-0.563c0.142-0.13,0.306-0.198,0.494-0.204V2.755L22.902,2.755z
	 M21.415,3.943v-0.26l0.021,0.001c0.14,0,0.237-0.034,0.293-0.102c0-0.303-0.006-0.554-0.021-0.752
	c-0.065-0.045-0.144-0.068-0.235-0.068c-0.021,0-0.039,0.001-0.058,0.003v-0.26c0.12,0.003,0.211,0.029,0.273,0.075h0.02
	c0-0.225-0.011-0.45-0.033-0.677l0.403-0.012c-0.015,0.222-0.022,0.54-0.022,0.955c0,0.421,0.011,0.774,0.031,1.059L21.75,3.917
	c-0.008-0.034-0.011-0.068-0.011-0.104h-0.021C21.635,3.885,21.534,3.928,21.415,3.943z M21.415,2.506v0.26
	c-0.097,0.012-0.17,0.058-0.222,0.136c-0.061,0.093-0.091,0.207-0.091,0.342c0,0.12,0.029,0.223,0.088,0.31
	c0.056,0.082,0.13,0.125,0.225,0.13v0.26c-0.03,0.004-0.063,0.006-0.098,0.006c-0.182,0-0.327-0.066-0.435-0.198
	c-0.107-0.133-0.161-0.289-0.161-0.471c0-0.208,0.059-0.389,0.176-0.543c0.116-0.154,0.279-0.231,0.487-0.231L21.415,2.506
	L21.415,2.506z M19.264,3.926V3.693c0.098-0.005,0.18-0.033,0.248-0.083c-0.006-0.129-0.009-0.239-0.009-0.332
	c-0.093,0-0.173,0.007-0.239,0.021V3.095c0.072-0.008,0.152-0.013,0.239-0.015c0.002-0.017,0.003-0.034,0.003-0.048
	c0-0.103-0.025-0.17-0.074-0.203c-0.035-0.024-0.091-0.039-0.168-0.045V2.507h0.054c0.172,0,0.305,0.036,0.398,0.108
	c0.094,0.072,0.141,0.198,0.141,0.379c0,0.04-0.002,0.112-0.006,0.218c-0.003,0.105-0.005,0.176-0.005,0.211
	c0,0.196,0.016,0.357,0.046,0.482l-0.336,0.012c-0.016-0.04-0.023-0.076-0.023-0.108h-0.019C19.446,3.867,19.363,3.906,19.264,3.926
	z M19.264,2.507v0.276c-0.031-0.002-0.066-0.004-0.104-0.004c-0.144,0-0.283,0.019-0.42,0.057l0.031-0.262
	C18.89,2.533,19.055,2.51,19.264,2.507L19.264,2.507z M19.264,3.095v0.204c-0.164,0.033-0.247,0.109-0.247,0.226
	c0,0.113,0.071,0.169,0.214,0.169l0.033,0v0.233c-0.053,0.011-0.11,0.017-0.173,0.017c-0.118,0-0.217-0.033-0.296-0.099
	c-0.078-0.066-0.117-0.154-0.117-0.263c0-0.145,0.061-0.263,0.184-0.355C18.948,3.16,19.083,3.117,19.264,3.095L19.264,3.095z
	 M15.191,3.945v-0.3c0.047,0.013,0.098,0.02,0.154,0.02c0.143,0,0.294-0.021,0.454-0.064l-0.028,0.276
	c-0.131,0.047-0.294,0.071-0.487,0.071C15.252,3.949,15.222,3.947,15.191,3.945L15.191,3.945z M15.191,3.285V3.079l0.298-0.006
	c0-0.218-0.094-0.328-0.279-0.328l-0.019,0V2.497l0.036-0.001c0.201,0,0.351,0.055,0.448,0.164c0.099,0.108,0.146,0.251,0.146,0.426
	c0,0.048-0.003,0.111-0.008,0.189L15.191,3.285L15.191,3.285z M18.63,2.124c0,0.065-0.021,0.121-0.066,0.17
	c-0.044,0.048-0.106,0.072-0.185,0.072c-0.066,0-0.118-0.021-0.155-0.063c-0.038-0.042-0.057-0.092-0.057-0.151
	c0-0.064,0.021-0.121,0.066-0.168c0.044-0.048,0.105-0.072,0.186-0.072c0.067,0,0.12,0.021,0.156,0.063
	C18.611,2.016,18.63,2.066,18.63,2.124L18.63,2.124z M18.564,3.908h-0.384c0.014-0.197,0.021-0.422,0.021-0.677
	c0-0.252-0.016-0.474-0.049-0.664l0.41-0.042c-0.012,0.184-0.018,0.419-0.018,0.705C18.545,3.475,18.551,3.7,18.564,3.908
	L18.564,3.908z M18.036,3.908h-0.378c0.021-0.241,0.029-0.475,0.029-0.701c0-0.17-0.021-0.281-0.065-0.333
	c-0.043-0.052-0.113-0.078-0.209-0.078c-0.077,0-0.158,0.028-0.244,0.084c-0.004,0.119-0.005,0.225-0.005,0.319
	c0,0.158,0.003,0.395,0.009,0.709H16.79c0.021-0.261,0.032-0.514,0.032-0.76c0-0.127-0.019-0.217-0.054-0.271
	c-0.036-0.054-0.109-0.081-0.222-0.081c-0.104,0-0.189,0.034-0.258,0.104c0.005,0.375,0.007,0.712,0.007,1.009h-0.383
	c0.017-0.296,0.025-0.53,0.025-0.701c0-0.222-0.023-0.437-0.069-0.643l0.364-0.04l0.024,0.151h0.022
	c0.124-0.112,0.263-0.168,0.418-0.168c0.193,0,0.33,0.056,0.408,0.168h0.023c0.141-0.112,0.279-0.168,0.417-0.168
	c0.161,0,0.283,0.035,0.365,0.105s0.124,0.196,0.124,0.379c0,0.018-0.001,0.052-0.004,0.104c-0.002,0.051-0.003,0.085-0.003,0.104
	C18.029,3.356,18.031,3.593,18.036,3.908z M15.191,2.497v0.249c-0.167,0.008-0.266,0.121-0.298,0.339l0.298-0.005v0.207L14.896,3.29
	c0.014,0.108,0.06,0.197,0.139,0.268c0.044,0.041,0.096,0.069,0.156,0.087v0.3c-0.2-0.016-0.357-0.083-0.471-0.204
	c-0.131-0.137-0.196-0.303-0.196-0.497c0-0.202,0.063-0.378,0.186-0.527C14.827,2.578,14.987,2.504,15.191,2.497L15.191,2.497z
	 M13.767,3.943v-0.26l0.021,0.001c0.139,0,0.237-0.034,0.293-0.102c0-0.303-0.007-0.554-0.021-0.752
	c-0.065-0.045-0.144-0.068-0.235-0.068c-0.02,0-0.039,0.001-0.057,0.003v-0.26c0.119,0.003,0.21,0.029,0.272,0.075h0.02
	c0-0.225-0.011-0.45-0.033-0.677l0.403-0.012c-0.015,0.222-0.023,0.54-0.023,0.955c0,0.421,0.011,0.774,0.032,1.059l-0.337,0.012
	c-0.007-0.034-0.01-0.068-0.01-0.104h-0.021C13.986,3.885,13.886,3.928,13.767,3.943z M13.767,2.506v0.26
	c-0.097,0.012-0.171,0.058-0.222,0.136c-0.061,0.093-0.092,0.207-0.092,0.342c0,0.12,0.03,0.223,0.088,0.31
	c0.055,0.082,0.13,0.125,0.225,0.13v0.26c-0.031,0.004-0.064,0.006-0.098,0.006c-0.182,0-0.327-0.066-0.435-0.198
	c-0.107-0.133-0.161-0.289-0.161-0.471c0-0.208,0.059-0.389,0.176-0.543c0.117-0.154,0.279-0.231,0.487-0.231L13.767,2.506
	L13.767,2.506z M12.375,3.926V3.692c0.097-0.005,0.179-0.032,0.247-0.083c-0.006-0.129-0.009-0.239-0.009-0.332
	c-0.093,0-0.172,0.007-0.238,0.021V3.095c0.072-0.008,0.151-0.013,0.238-0.015c0.002-0.017,0.003-0.034,0.003-0.048
	c0-0.103-0.025-0.17-0.074-0.203c-0.035-0.024-0.091-0.039-0.167-0.045V2.507h0.053c0.172,0,0.305,0.036,0.398,0.108
	c0.094,0.072,0.141,0.198,0.141,0.379c0,0.04-0.002,0.112-0.005,0.218c-0.003,0.105-0.005,0.176-0.005,0.211
	c0,0.196,0.015,0.357,0.045,0.482l-0.336,0.012c-0.016-0.04-0.023-0.076-0.023-0.108h-0.018C12.557,3.867,12.473,3.906,12.375,3.926
	z M12.375,2.507v0.276c-0.032-0.002-0.066-0.004-0.105-0.004c-0.144,0-0.284,0.019-0.42,0.057l0.031-0.262
	C12,2.533,12.165,2.51,12.375,2.507L12.375,2.507z M12.375,3.095v0.204c-0.165,0.034-0.248,0.109-0.248,0.226
	c0,0.113,0.071,0.169,0.214,0.169l0.034-0.001v0.234c-0.053,0.011-0.111,0.017-0.173,0.017c-0.119,0-0.217-0.033-0.296-0.099
	c-0.078-0.066-0.117-0.154-0.117-0.263c0-0.145,0.061-0.263,0.183-0.355C12.058,3.16,12.193,3.117,12.375,3.095L12.375,3.095z
	 M10.576,3.908V3.793c0.018,0.061,0.026,0.099,0.026,0.115H10.576L10.576,3.908z M10.576,3.451c0.03,0.109,0.087,0.207,0.17,0.292
	c0.132,0.137,0.32,0.206,0.565,0.206c0.147,0,0.265-0.023,0.352-0.069l0.024-0.271c-0.125,0.038-0.23,0.057-0.315,0.057
	c-0.144,0-0.256-0.044-0.335-0.133c-0.079-0.09-0.118-0.199-0.118-0.328c0-0.119,0.033-0.219,0.1-0.3
	c0.067-0.081,0.157-0.122,0.272-0.122c0.108,0,0.206,0.019,0.293,0.055l0.048-0.291c-0.091-0.026-0.195-0.04-0.313-0.04
	c-0.239,0-0.428,0.074-0.565,0.223c-0.088,0.095-0.148,0.201-0.18,0.317V3.451z M10.576,3.045v0.405
	c-0.018-0.063-0.027-0.129-0.027-0.2C10.549,3.179,10.558,3.11,10.576,3.045L10.576,3.045z M10.576,3.793
	c-0.042-0.144-0.134-0.414-0.275-0.811C10.1,2.417,10,2.107,10,2.052H9.685v0.255h0.016c0,0.04,0.082,0.305,0.244,0.795H9.685v0.272
	h0.332c0.086,0.292,0.13,0.47,0.13,0.533h0.429V3.793z M9.685,2.052v0.255H9.678c0,0.037-0.084,0.302-0.252,0.795h0.26v0.272H9.358
	C9.269,3.663,9.225,3.84,9.225,3.908H8.795c0-0.037,0.111-0.341,0.333-0.912C9.35,2.424,9.46,2.111,9.46,2.052H9.685z"/>
<path style="fill-rule:evenodd;clip-rule:evenodd;fill:#FFFFFF;" d="M27.755,4.755l-0.101,0.408
	C27.567,5.128,27.48,5.11,27.392,5.11c-0.171,0-0.283,0.077-0.338,0.23c0,0.464,0.004,0.821,0.011,1.071h-0.464
	c0.02-0.351,0.029-0.636,0.029-0.858c0-0.276-0.029-0.539-0.087-0.787l0.445-0.048c0.02,0.127,0.029,0.202,0.029,0.225h0.027
	c0.107-0.164,0.25-0.246,0.428-0.246C27.557,4.697,27.65,4.717,27.755,4.755L27.755,4.755z M25.552,6.479v-0.32h0.006
	c0.123,0,0.223-0.054,0.3-0.16c0.077-0.107,0.116-0.241,0.116-0.401c0-0.168-0.04-0.311-0.118-0.425
	c-0.078-0.113-0.18-0.17-0.304-0.172V4.679h0.033c0.231,0,0.43,0.075,0.596,0.227c0.165,0.152,0.248,0.365,0.248,0.64
	c0,0.293-0.09,0.522-0.271,0.688C25.986,6.391,25.783,6.473,25.552,6.479z M25.552,4.679v0.322h-0.005
	c-0.123,0-0.224,0.054-0.301,0.16c-0.077,0.107-0.116,0.241-0.116,0.401c0,0.168,0.039,0.31,0.118,0.425
	c0.078,0.112,0.18,0.17,0.304,0.172v0.32h-0.029c-0.233,0-0.433-0.075-0.599-0.226s-0.249-0.362-0.249-0.636
	c0-0.294,0.09-0.524,0.271-0.69C25.12,4.769,25.321,4.686,25.552,4.679L25.552,4.679z M23.728,6.456V6.138h0.024
	c0.171,0,0.291-0.041,0.359-0.123c0-0.371-0.009-0.679-0.026-0.921c-0.079-0.057-0.176-0.084-0.287-0.084
	c-0.024,0-0.048,0.002-0.07,0.005V4.696c0.146,0.004,0.258,0.035,0.334,0.092h0.023c0-0.274-0.013-0.55-0.04-0.828l0.494-0.015
	c-0.019,0.271-0.028,0.661-0.028,1.169c0,0.516,0.013,0.946,0.039,1.296l-0.413,0.014c-0.009-0.041-0.013-0.083-0.013-0.127h-0.026
	C23.996,6.384,23.873,6.438,23.728,6.456z M23.728,4.696v0.318c-0.118,0.016-0.209,0.07-0.271,0.166
	c-0.074,0.114-0.112,0.253-0.112,0.419c0,0.146,0.037,0.272,0.108,0.379c0.067,0.1,0.159,0.152,0.275,0.159v0.318
	c-0.038,0.004-0.078,0.007-0.12,0.007c-0.223,0-0.4-0.081-0.531-0.242c-0.132-0.162-0.198-0.354-0.198-0.576
	c0-0.255,0.072-0.477,0.216-0.665c0.143-0.189,0.342-0.284,0.597-0.284L23.728,4.696L23.728,4.696z M22.003,6.436V6.148
	c0.119-0.006,0.221-0.039,0.303-0.101c-0.007-0.157-0.011-0.293-0.011-0.407c-0.113,0-0.211,0.008-0.292,0.025V5.418
	c0.089-0.011,0.186-0.017,0.292-0.02c0.003-0.021,0.004-0.041,0.004-0.06c0-0.125-0.03-0.208-0.09-0.248
	c-0.044-0.028-0.111-0.047-0.206-0.055V4.698l0.065-0.001c0.211,0,0.373,0.044,0.487,0.133c0.115,0.088,0.173,0.243,0.173,0.464
	c0,0.049-0.003,0.138-0.007,0.267s-0.006,0.216-0.006,0.259c0,0.24,0.019,0.438,0.056,0.591L22.36,6.424
	c-0.02-0.049-0.028-0.093-0.028-0.133H22.31C22.227,6.362,22.124,6.41,22.003,6.436z M22.003,4.698v0.338
	c-0.038-0.004-0.081-0.005-0.128-0.005c-0.176,0-0.347,0.023-0.515,0.069l0.039-0.321C21.545,4.729,21.747,4.702,22.003,4.698
	L22.003,4.698z M22.003,5.418v0.248c-0.201,0.041-0.302,0.134-0.302,0.276c0,0.139,0.087,0.207,0.262,0.207l0.04-0.001v0.287
	c-0.064,0.013-0.135,0.02-0.211,0.02c-0.146,0-0.267-0.04-0.362-0.121c-0.096-0.08-0.144-0.188-0.144-0.321
	c0-0.177,0.074-0.321,0.224-0.435C21.617,5.497,21.781,5.444,22.003,5.418L22.003,5.418z M17.617,6.436V6.148
	c0.118-0.006,0.22-0.039,0.303-0.101c-0.008-0.157-0.011-0.293-0.011-0.407c-0.114,0-0.211,0.009-0.292,0.025V5.418
	c0.088-0.011,0.185-0.017,0.292-0.02c0.002-0.021,0.003-0.041,0.003-0.06c0-0.125-0.03-0.208-0.09-0.248
	c-0.043-0.028-0.111-0.047-0.205-0.055V4.698l0.065-0.001c0.21,0,0.373,0.044,0.487,0.133c0.114,0.088,0.172,0.243,0.172,0.464
	c0,0.049-0.003,0.138-0.007,0.267c-0.003,0.129-0.006,0.216-0.006,0.259c0,0.24,0.019,0.438,0.056,0.591l-0.411,0.014
	c-0.019-0.049-0.027-0.093-0.027-0.133h-0.023C17.84,6.362,17.738,6.411,17.617,6.436L17.617,6.436z M21.149,6.412h-0.461
	c0.024-0.294,0.036-0.581,0.036-0.858c0-0.208-0.027-0.345-0.081-0.408c-0.053-0.063-0.139-0.096-0.256-0.096
	c-0.094,0-0.193,0.035-0.298,0.103c-0.005,0.146-0.007,0.276-0.007,0.391c0,0.194,0.003,0.483,0.011,0.869h-0.468
	c0.025-0.318,0.038-0.629,0.038-0.931c0-0.155-0.021-0.266-0.065-0.332c-0.043-0.066-0.134-0.1-0.271-0.1
	c-0.126,0-0.231,0.042-0.315,0.128c0.006,0.46,0.009,0.871,0.009,1.234h-0.469c0.021-0.363,0.03-0.649,0.03-0.858
	c0-0.271-0.027-0.534-0.085-0.787l0.447-0.048l0.029,0.185h0.028c0.151-0.138,0.321-0.206,0.511-0.206
	c0.237,0,0.403,0.068,0.5,0.206h0.028c0.172-0.138,0.343-0.206,0.511-0.206c0.197,0,0.347,0.043,0.447,0.128
	c0.101,0.086,0.15,0.241,0.15,0.465c0,0.022-0.001,0.064-0.003,0.127s-0.004,0.104-0.004,0.126
	C21.143,5.737,21.146,6.026,21.149,6.412z M17.617,4.698v0.338c-0.039-0.004-0.081-0.005-0.129-0.005
	c-0.176,0-0.347,0.023-0.514,0.069l0.038-0.321C17.158,4.729,17.36,4.702,17.617,4.698L17.617,4.698z M17.617,5.418v0.248
	c-0.202,0.041-0.303,0.134-0.303,0.276c0,0.139,0.088,0.207,0.262,0.207l0.041-0.001v0.287c-0.065,0.014-0.136,0.02-0.212,0.02
	c-0.146,0-0.266-0.04-0.362-0.121c-0.096-0.08-0.144-0.188-0.144-0.321c0-0.177,0.074-0.321,0.224-0.435
	C17.23,5.497,17.395,5.444,17.617,5.418L17.617,5.418z M14.515,7.313V7.057c0.165,0,0.296-0.031,0.392-0.094
	c0.097-0.063,0.145-0.146,0.145-0.249c0-0.087-0.033-0.148-0.099-0.188c-0.065-0.038-0.179-0.057-0.339-0.057l-0.099-0.001V6.103
	c0.074,0.004,0.164,0.006,0.268,0.006c0.466,0,0.699,0.159,0.699,0.477c0,0.223-0.097,0.4-0.291,0.532
	C15.003,7.242,14.778,7.309,14.515,7.313L14.515,7.313z M14.515,5.834V5.585h0.006c0.085,0,0.16-0.025,0.226-0.077
	c0.066-0.052,0.099-0.128,0.099-0.229c0-0.104-0.033-0.185-0.102-0.239c-0.066-0.054-0.143-0.081-0.229-0.082V4.699h0.021
	c0.185,0,0.335,0.035,0.45,0.104h0.024c0.033-0.22,0.146-0.33,0.338-0.33c0.076,0,0.142,0.014,0.199,0.041L15.51,4.839
	c-0.182,0-0.295,0.025-0.341,0.078v0.022c0.069,0.088,0.104,0.186,0.104,0.294c0,0.166-0.062,0.308-0.185,0.425
	c-0.122,0.118-0.306,0.177-0.548,0.177L14.515,5.834L14.515,5.834z M16.88,4.755l-0.102,0.408c-0.086-0.035-0.173-0.053-0.262-0.053
	c-0.171,0-0.284,0.077-0.339,0.23c0,0.464,0.004,0.821,0.011,1.071h-0.464c0.021-0.351,0.03-0.636,0.03-0.858
	c0-0.276-0.029-0.539-0.088-0.787l0.445-0.048c0.02,0.127,0.029,0.202,0.029,0.225h0.027c0.107-0.164,0.25-0.246,0.428-0.246
	C16.681,4.697,16.774,4.717,16.88,4.755z M14.515,4.699v0.258h-0.003c-0.087,0-0.164,0.027-0.229,0.079
	c-0.066,0.054-0.099,0.131-0.099,0.233c0,0.104,0.034,0.182,0.101,0.235c0.066,0.052,0.143,0.079,0.229,0.08v0.249
	c-0.108-0.001-0.196-0.01-0.267-0.027c-0.061,0.028-0.092,0.064-0.092,0.11c0,0.07,0.037,0.12,0.111,0.148
	c0.045,0.018,0.128,0.03,0.248,0.037v0.366c-0.098-0.003-0.197-0.008-0.295-0.017c-0.103,0.061-0.154,0.15-0.154,0.27
	c0,0.224,0.149,0.335,0.446,0.335h0.003v0.257h-0.032c-0.544,0-0.816-0.171-0.816-0.513c0-0.105,0.03-0.195,0.092-0.27
	c0.061-0.073,0.132-0.119,0.212-0.135V6.37c-0.098-0.062-0.146-0.156-0.146-0.283c0-0.128,0.067-0.234,0.2-0.32V5.742
	c-0.188-0.094-0.283-0.241-0.283-0.441c0-0.171,0.065-0.314,0.195-0.429C14.062,4.76,14.254,4.703,14.515,4.699L14.515,4.699z
	 M12.693,6.479v-0.32h0.005c0.124,0,0.223-0.054,0.301-0.16c0.077-0.107,0.116-0.241,0.116-0.401c0-0.168-0.04-0.311-0.119-0.425
	c-0.078-0.113-0.179-0.17-0.303-0.172V4.679h0.033c0.231,0,0.43,0.075,0.596,0.227c0.165,0.152,0.248,0.365,0.248,0.64
	c0,0.293-0.09,0.522-0.27,0.688C13.127,6.391,12.925,6.473,12.693,6.479z M12.693,4.679v0.322h-0.006c-0.123,0-0.223,0.054-0.3,0.16
	c-0.078,0.107-0.116,0.241-0.116,0.401c0,0.168,0.039,0.31,0.118,0.425c0.078,0.113,0.18,0.17,0.304,0.172v0.32h-0.03
	c-0.232,0-0.432-0.075-0.598-0.226c-0.123-0.111-0.201-0.257-0.232-0.436V5.411c0.034-0.197,0.119-0.358,0.255-0.483
	C12.261,4.769,12.463,4.686,12.693,4.679L12.693,4.679z M11.833,4.822l0.017-0.067l-0.017-0.006V4.822z M11.833,4.749v0.073
	l-0.084,0.341c-0.086-0.035-0.173-0.053-0.262-0.053c-0.171,0-0.283,0.077-0.338,0.23c0,0.464,0.003,0.821,0.011,1.071h-0.464
	c0.02-0.351,0.03-0.636,0.03-0.858c0-0.276-0.029-0.539-0.087-0.787l0.445-0.048c0.019,0.127,0.029,0.202,0.029,0.225h0.028
	c0.107-0.164,0.25-0.246,0.427-0.246C11.646,4.697,11.734,4.715,11.833,4.749L11.833,4.749z M11.833,5.411
	c-0.011,0.065-0.017,0.134-0.017,0.207c0,0.071,0.005,0.138,0.017,0.2V5.411L11.833,5.411z M9.692,5.535V5.213
	c0.252-0.047,0.378-0.174,0.378-0.381c0-0.218-0.126-0.34-0.378-0.367V4.13h0.041c0.221,0,0.407,0.05,0.559,0.15
	s0.229,0.251,0.229,0.456c0,0.277-0.103,0.482-0.31,0.615C10.062,5.447,9.889,5.508,9.692,5.535z M9.692,4.13v0.334
	C9.655,4.461,9.617,4.459,9.575,4.459c-0.082,0-0.169,0.008-0.261,0.026c0.013,0.219,0.019,0.468,0.019,0.747
	c0.029,0.002,0.063,0.003,0.101,0.003c0.097,0,0.184-0.007,0.258-0.021v0.322c-0.077,0.01-0.157,0.016-0.241,0.016
	c-0.055,0-0.093-0.001-0.117-0.004c0,0.219,0.006,0.507,0.019,0.865h-0.49c0.015-0.336,0.023-0.731,0.023-1.188
	c0-0.419-0.008-0.78-0.023-1.083h0.304c0.043,0,0.126-0.001,0.248-0.005C9.519,4.133,9.611,4.131,9.692,4.13z"/>
<path style="fill-rule:evenodd;clip-rule:evenodd;fill:#FFFFFF;" d="M5.59,5.466h1.414c0.131,0,0.239,0.107,0.239,0.239v1.413
	c0,0.132-0.107,0.239-0.239,0.239H5.59c-0.132,0-0.239-0.107-0.239-0.239V5.705C5.352,5.573,5.458,5.466,5.59,5.466z"/>
<path style="fill-rule:evenodd;clip-rule:evenodd;fill:#FFFFFF;" d="M3.346,5.466h1.456c0.12,0,0.218,0.098,0.218,0.219V7.14
	c0,0.12-0.098,0.218-0.218,0.218H3.346c-0.12,0-0.218-0.098-0.218-0.218V5.685C3.128,5.563,3.226,5.466,3.346,5.466z"/>
<path style="fill-rule:evenodd;clip-rule:evenodd;fill:#FFFFFF;" d="M3.299,3.208h1.55c0.094,0,0.17,0.076,0.17,0.17v1.55
	c0,0.094-0.077,0.17-0.17,0.17h-1.55c-0.094,0-0.17-0.076-0.17-0.17v-1.55C3.128,3.285,3.205,3.208,3.299,3.208z"/>
<path style="fill-rule:evenodd;clip-rule:evenodd;fill:#FFFFFF;" d="M1.103,5.466h1.496c0.109,0,0.197,0.089,0.197,0.198V7.16
	c0,0.108-0.088,0.197-0.197,0.197H1.103c-0.109,0-0.197-0.089-0.197-0.197V5.664C0.905,5.555,0.994,5.466,1.103,5.466z"/>
<path style="fill-rule:evenodd;clip-rule:evenodd;fill:#FFFFFF;" d="M1.134,3.208h1.433c0.125,0,0.229,0.103,0.229,0.229v1.432
	c0,0.127-0.104,0.229-0.229,0.229H1.134c-0.126,0-0.229-0.103-0.229-0.229V3.438C0.905,3.312,1.008,3.208,1.134,3.208z"/>
<path style="fill-rule:evenodd;clip-rule:evenodd;fill:#FFFFFF;" d="M1.071,0.95h1.56c0.091,0,0.166,0.074,0.166,0.165v1.56
	c0,0.091-0.074,0.166-0.166,0.166h-1.56c-0.091,0-0.166-0.075-0.166-0.166v-1.56C0.905,1.024,0.979,0.95,1.071,0.95z"/>
</svg>
