<?xml version="1.0" encoding="iso-8859-1"?>
<!-- Generator: Adobe Illustrator 15.0.0, SVG Export Plug-In . SVG Version: 6.00 Build 0)  -->
<!DOCTYPE svg PUBLIC "-//W3C//DTD SVG 1.0//EN" "http://www.w3.org/TR/2001/REC-SVG-20010904/DTD/svg10.dtd">
<svg version="1.0" id="Camada_1" xmlns="http://www.w3.org/2000/svg" xmlns:xlink="http://www.w3.org/1999/xlink" x="0px" y="0px"
	 width="8.16px" height="8.16px" viewBox="0 0 8.16 8.16" style="enable-background:new 0 0 8.16 8.16;" xml:space="preserve">
<path style="fill-rule:evenodd;clip-rule:evenodd;fill:#FFFFFF;" d="M5.583,5.466h1.414c0.131,0,0.238,0.107,0.238,0.239v1.413
	c0,0.132-0.107,0.239-0.238,0.239H5.583c-0.132,0-0.239-0.107-0.239-0.239V5.705C5.344,5.573,5.451,5.466,5.583,5.466z"/>
<path style="fill-rule:evenodd;clip-rule:evenodd;fill:#FFFFFF;" d="M3.339,5.466h1.455c0.12,0,0.218,0.098,0.218,0.219V7.14
	c0,0.12-0.098,0.218-0.218,0.218H3.339c-0.12,0-0.218-0.098-0.218-0.218V5.685C3.121,5.563,3.219,5.466,3.339,5.466z"/>
<path style="fill-rule:evenodd;clip-rule:evenodd;fill:#FFFFFF;" d="M3.292,3.208h1.55c0.094,0,0.17,0.076,0.17,0.17v1.55
	c0,0.094-0.076,0.17-0.17,0.17h-1.55c-0.094,0-0.17-0.076-0.17-0.17v-1.55C3.121,3.285,3.197,3.208,3.292,3.208z"/>
<path style="fill-rule:evenodd;clip-rule:evenodd;fill:#FFFFFF;" d="M1.095,5.466h1.496c0.109,0,0.197,0.089,0.197,0.198V7.16
	c0,0.108-0.088,0.197-0.197,0.197H1.095c-0.109,0-0.198-0.089-0.198-0.197V5.664C0.897,5.555,0.986,5.466,1.095,5.466z"/>
<path style="fill-rule:evenodd;clip-rule:evenodd;fill:#FFFFFF;" d="M1.127,3.208H2.56c0.125,0,0.229,0.103,0.229,0.229v1.432
	c0,0.127-0.104,0.229-0.229,0.229H1.127c-0.126,0-0.229-0.103-0.229-0.229V3.438C0.897,3.312,1.001,3.208,1.127,3.208z"/>
<path style="fill-rule:evenodd;clip-rule:evenodd;fill:#FFFFFF;" d="M1.063,0.95h1.56c0.091,0,0.166,0.074,0.166,0.165v1.56
	c0,0.091-0.074,0.166-0.166,0.166h-1.56c-0.091,0-0.166-0.075-0.166-0.166v-1.56C0.897,1.024,0.972,0.95,1.063,0.95z"/>
</svg>
